C:\Users\u0088756\Documents\FWO\Software\ExoSim\PredSim_2D\Polynomials\Gait18_shorterHamstring\dummy_motion_mtp.mot
nRows=25
nColumns=13

name C:\Users\u0088756\Documents\FWO\Software\ExoSim\PredSim_2D\Polynomials\Gait18_shorterHamstring\dummy_motion_mtp.mot
datacolumns 13
datarows 25
range 0.0100000000 0.2500000000
endheader
time	pelvis_tilt	pelvis_tx	pelvis_ty	hip_flexion_r	knee_angle_r	ankle_angle_r	mtp_angle_r	hip_flexion_l	knee_angle_l	ankle_angle_l	mtp_angle_l	lumbar_extension
        0.0100000000	        0.0000000000	        0.0000000000	        0.0000000000	       -3.5693795783	       -0.9963256323	       18.1952907741	        0.0000000000	       -3.5693795783	       -0.9963256323	       18.1952907741	        0.0000000000	        0.0000000000	
        0.0200000000	        0.0000000000	        0.0000000000	        0.0000000000	        4.7612044005	      -31.1111260750	      -10.2015184598	        0.0000000000	        4.7612044005	      -31.1111260750	      -10.2015184598	        0.0000000000	        0.0000000000	
        0.0300000000	        0.0000000000	        0.0000000000	        0.0000000000	      -33.1741321543	      -88.8642652744	      -21.7387030032	        0.0000000000	      -33.1741321543	      -88.8642652744	      -21.7387030032	        0.0000000000	        0.0000000000	
        0.0400000000	        0.0000000000	        0.0000000000	        0.0000000000	      -25.4768802917	       -9.3170363865	      -26.6684624010	        0.0000000000	      -25.4768802917	       -9.3170363865	      -26.6684624010	        0.0000000000	        0.0000000000	
        0.0500000000	        0.0000000000	        0.0000000000	        0.0000000000	      -34.3796273937	       -3.2579327605	        5.8835242321	        0.0000000000	      -34.3796273937	       -3.2579327605	        5.8835242321	        0.0000000000	        0.0000000000	
        0.0600000000	        0.0000000000	        0.0000000000	        0.0000000000	      -22.1462072416	      -24.0213820047	        2.1190285415	        0.0000000000	      -22.1462072416	      -24.0213820047	        2.1190285415	        0.0000000000	        0.0000000000	
        0.0700000000	        0.0000000000	        0.0000000000	        0.0000000000	      -38.9067718100	      -16.9742394340	      -18.5337796242	        0.0000000000	      -38.9067718100	      -16.9742394340	      -18.5337796242	        0.0000000000	        0.0000000000	
        0.0800000000	        0.0000000000	        0.0000000000	        0.0000000000	      -19.3476521626	      -39.7164644904	      -21.1184093697	        0.0000000000	      -19.3476521626	      -39.7164644904	      -21.1184093697	        0.0000000000	        0.0000000000	
        0.0900000000	        0.0000000000	        0.0000000000	        0.0000000000	       42.8282733174	      -77.5427464027	       26.8519636354	        0.0000000000	       42.8282733174	      -77.5427464027	       26.8519636354	        0.0000000000	        0.0000000000	
        0.1000000000	        0.0000000000	        0.0000000000	        0.0000000000	      -38.4027401718	      -69.8544993536	      -13.0612626793	        0.0000000000	      -38.4027401718	      -69.8544993536	      -13.0612626793	        0.0000000000	        0.0000000000	
        0.1100000000	        0.0000000000	        0.0000000000	        0.0000000000	      -28.4650618343	      -43.4932050783	       23.1808611277	        0.0000000000	      -28.4650618343	      -43.4932050783	       23.1808611277	        0.0000000000	        0.0000000000	
        0.1200000000	        0.0000000000	        0.0000000000	        0.0000000000	       28.9593649559	      -68.2453375745	       -9.7691929397	        0.0000000000	       28.9593649559	      -68.2453375745	       -9.7691929397	        0.0000000000	        0.0000000000	
        0.1300000000	        0.0000000000	        0.0000000000	        0.0000000000	        9.3128663446	       -9.8487833845	      -22.4915350380	        0.0000000000	        9.3128663446	       -9.8487833845	      -22.4915350380	        0.0000000000	        0.0000000000	
        0.1400000000	        0.0000000000	        0.0000000000	        0.0000000000	       35.5481308437	      -19.5077252716	       12.8977414369	        0.0000000000	       35.5481308437	      -19.5077252716	       12.8977414369	        0.0000000000	        0.0000000000	
        0.1500000000	        0.0000000000	        0.0000000000	        0.0000000000	       28.5071155282	      -69.3127098299	       -6.3010251977	        0.0000000000	       28.5071155282	      -69.3127098299	       -6.3010251977	        0.0000000000	        0.0000000000	
        0.1600000000	        0.0000000000	        0.0000000000	        0.0000000000	       20.6527275558	      -21.8065990025	      -18.3406009424	        0.0000000000	       20.6527275558	      -21.8065990025	      -18.3406009424	        0.0000000000	        0.0000000000	
        0.1700000000	        0.0000000000	        0.0000000000	        0.0000000000	       14.7905557527	      -85.5171465490	       27.0206203448	        0.0000000000	       14.7905557527	      -85.5171465490	       27.0206203448	        0.0000000000	        0.0000000000	
        0.1800000000	        0.0000000000	        0.0000000000	        0.0000000000	       33.4945208889	      -20.6727149112	      -21.7532364280	        0.0000000000	       33.4945208889	      -20.6727149112	      -21.7532364280	        0.0000000000	        0.0000000000	
        0.1900000000	        0.0000000000	        0.0000000000	        0.0000000000	       46.6290581228	      -21.9469548383	      -13.9359887317	        0.0000000000	       46.6290581228	      -21.9469548383	      -13.9359887317	        0.0000000000	        0.0000000000	
        0.2000000000	        0.0000000000	        0.0000000000	        0.0000000000	      -48.4817669861	       -4.8092081582	       28.8630897494	        0.0000000000	      -48.4817669861	       -4.8092081582	       28.8630897494	        0.0000000000	        0.0000000000	
        0.2100000000	        0.0000000000	        0.0000000000	        0.0000000000	       -9.5623921143	      -19.6109971649	      -17.0740676860	        0.0000000000	       -9.5623921143	      -19.6109971649	      -17.0740676860	        0.0000000000	        0.0000000000	
        0.2200000000	        0.0000000000	        0.0000000000	        0.0000000000	        1.3752367315	      -47.3956125648	      -24.0159363304	        0.0000000000	        1.3752367315	      -47.3956125648	      -24.0159363304	        0.0000000000	        0.0000000000	
        0.2300000000	        0.0000000000	        0.0000000000	        0.0000000000	       26.3402600925	      -10.0064695936	      -28.8462093840	        0.0000000000	       26.3402600925	      -10.0064695936	      -28.8462093840	        0.0000000000	        0.0000000000	
        0.2400000000	        0.0000000000	        0.0000000000	        0.0000000000	      -34.5159151005	      -45.8927628055	      -20.1673289325	        0.0000000000	      -34.5159151005	      -45.8927628055	      -20.1673289325	        0.0000000000	        0.0000000000	
        0.2500000000	        0.0000000000	        0.0000000000	        0.0000000000	       41.6895566460	      -63.6494984373	       10.4160801763	        0.0000000000	       41.6895566460	      -63.6494984373	       10.4160801763	        0.0000000000	        0.0000000000	
